/* XPM */
static char *spr_tex_a[] = {
/* columns rows colors chars-per-pixel */
"128 128 7 1 ",
"  c None",
". c black",
"X c #595652",
"o c #AC3232",
"O c #DF7126",
"+ c #847E87",
"@ c white",
/* pixels */
"                                                                                                                                ",
"                                                                                                                                ",
"                                                                                                                                ",
"                                                                                                                                ",
"                                                                                                                                ",
"                                                                                                                                ",
"                                                                                                                                ",
"                                                                                                                                ",
"                                                                                                                                ",
"                                                                                                                                ",
"                                                                                                                                ",
"                                                                                                                                ",
"                                                                                                                                ",
"                                                            ++++++++++++                                                        ",
"                                                        ++++++++++++++++++++                                                    ",
"                                                      +++++++..........+++++++                                                  ",
"                                                    +++++..................+++++                                                ",
"                                                  +++++......................+++++                                              ",
"                                                +++++..........................+++++                                            ",
"                                               ++++..............................++++                                           ",
"                                              +++..................................+++                                          ",
"                                             +++....................................+++                                         ",
"                                            +++......................................+++                                        ",
"                                           +++........................................+++                                       ",
"                                           ++..........................................++                                       ",
"                                          +++..........................................+++                                      ",
"                                         +++.........ooo................................+++                                     ",
"                                         ++..........ooo...............ooo...............++                                     ",
"                                        +++..........ooo...............ooo...............+++                                    ",
"                                        ++...........ooo...............ooo................++                                    ",
"                                        ++...........ooo...............ooo................++                                    ",
"                                        ++...........ooo...............ooo................++                                    ",
"                                       +++...........ooo...............ooo................+++                                   ",
"                                       ++............ooo...............ooo.................++                                   ",
"                                       ++............ooo...............ooo.................++                                   ",
"                                       ++............ooo...............ooo.................++                                   ",
"                                       ++..............................ooo.................++                                   ",
"                                       ++..................................................++                                   ",
"                                       ++..................................................++                                   ",
"                                       ++..................................................++                                   ",
"                                       +++.......................................O........+++                                   ",
"                                        ++..........................O...........O.........++                                    ",
"                                        ++..............O..........OO..........O..........++                                    ",
"                                        ++.............O.O.........O.O........O...........++                                    ",
"                                        +++..........OO...O.......O..O.......O...........+++                                    ",
"                                         ++.........O......O.....O....O......O...........++                                     ",
"                                         +++.......O.......O....O.....O.....O...........+++                                     ",
"                                          +++...............O...O......O...O...........+++                                      ",
"                                           ++................O.O.......O..O............++                                       ",
"                                           +++................O.........OO............+++                                       ",
"                                            +++.........................O............+++                                        ",
"                                             +++....................................+++                                         ",
"                                              +++..................................+++                                          ",
"                                               ++++..............................++++                                           ",
"                                                +++++++++++++++++++++++++++++++++++++                                           ",
"                                                +++++++++++++++++++++++++++++++++++++                                           ",
"                                                +++++++++++++++++++++++++++++++++++++                                           ",
"                                                +++++++++++++++++++++++++++++++++++++                                           ",
"                                                +++++++++++++++++++++++++++++++++++++                                           ",
"                                                +++++++++++++++++++++++++++++++++++++                                           ",
"                                                +++++++++++++++++++++++++++++++++++++                                           ",
"                                                +++++++++++++++++++++++++++++++++++++                                           ",
"                                                +++++++++++++++++++++++++++++++++++++                                           ",
"                                                +++++++++++++++++++++@@@@@@@@@@@@@+++                                           ",
"                                                +++++++++++++++++++++@@@@@@@@@@@@@+++                                           ",
"                                                +++++++++++++++++++++@@XXXX@@@@@@@+++                                           ",
"                                                +++++++++++++++++++++@@@@@@@@@@@@@+++                                           ",
"                                                +++++++++++++++++++++@@XXXXXX@@@@@+++                                           ",
"                                                +++++++++++++++++++++@@@@@@@@@@@@@+++                                           ",
"                                                +++++++++++++++++++++@@XXXX@@@@@@@+++                                           ",
"                                                +++++++++++++++++++++@@@@@@@@@@@@@+++                                           ",
"                                                +++++++++++++++++++++++++++++++++++++                                           ",
"                                                +++++++++++++++++++++++++++++++++++++                                           ",
"                                                +++++++++++++++++++++++++++++++++++++                                           ",
"                                                +++++++++++++++++++++++++++++++++++++                                           ",
"                                                +++++++++++++++++++++++++++++++++++++                                           ",
"                                                +++++++++++++++++++++++++++++++++++++                                           ",
"                                                +++++++++++++++++++++++++++++++++++++                                           ",
"                                                +++++++++++++++++++++++++++++++++++++                                           ",
"                                                +++++++++++++++++++++++++++++++++++++                                           ",
"                                                +++++++++++++++++++++++++++++++++++++                                           ",
"                                                +++++++++++++++++++++++++++++++++++++                                           ",
"                                                +++++++++++++++++++++++++++++++++++++                                           ",
"                                                +++++++++++++++++++++++++++++++++++++                                           ",
"                                                +++++++++++++++++++++++++++++++++++++                                           ",
"                                                +++++++++++++++++++++++++++++++++++++                                           ",
"                                                +++++++++++++++++++++++++++++++++++++                                           ",
"                                                +++++++++++++++++++++++++++++++++++++                                           ",
"                                                +++++++++++++++++++++++++++++++++++++                                           ",
"                                                +++++++++++++++++++++++++++++++++++++                                           ",
"                                                +++++++++++++++++++++++++++++++++++++                                           ",
"                                                +++++++++++++++++++++++++++++++++++++                                           ",
"                                                +++++++++++++++++++++++++++++++++++++                                           ",
"                                                +++++++++++++++++++++++++++++++++++++                                           ",
"                                                +++++++++++++++++++++++++++++++++++++                                           ",
"                                                +++++++++++++++++++++++++++++++++++++                                           ",
"                                                +++++++++++++++++++++++++++++++++++++                                           ",
"                                                +++++++++++++++++++++++++++++++++++++                                           ",
"                                                +++++++++++++++++++++++++++++++++++++                                           ",
"                                                +++++++++++++++++++++++++++++++++++++                                           ",
"                                                +++++++++++++++++++++++++++++++++++++                                           ",
"                                                +++++++++++++++++++++++++++++++++++++                                           ",
"                                                +++++++++++++++++++++++++++++++++++++                                           ",
"                                                +++++++++++++++++++++++++++++++++++++                                           ",
"                                                +++++++++++++++++++++++++++++++++++++                                           ",
"                                                +++++++++++++++++++++++++++++++++++++                                           ",
"                                                +++++++++++++++++++++++++++++++++++++                                           ",
"                                                +++++++++++++++++++++++++++++++++++++                                           ",
"                                                +++++++++++++++++++++++++++++++++++++                                           ",
"                                                +++++++++++++++++++++++++++++++++++++                                           ",
"                                                +++++++++++++++++++++++++++++++++++++                                           ",
"                                                +++++++++++++++++++++++++++++++++++++                                           ",
"                                                +++++++++++++++++++++++++++++++++++++                                           ",
"                                                +++++++++++++++++++++++++++++++++++++                                           ",
"                                                +++++++++++++++++++++++++++++++++++++                                           ",
"                                                +++++++++++++++++++++++++++++++++++++                                           ",
"                                                                                                                                ",
"                                                                                                                                ",
"                                                                                                                                ",
"                                                                                                                                ",
"                                                                                                                                ",
"                                                                                                                                ",
"                                                                                                                                ",
"                                                                                                                                ",
"                                                                                                                                ",
"                                                                                                                                ",
"                                                                                                                                ",
"                                                                                                                                "
};
